<?xml version="1.0" encoding="UTF-8"?>
<svg xmlns="http://www.w3.org/2000/svg" viewBox="0 0 2048 1333" width="169" height="110">
  <!-- Define colors as variables for easier maintenance -->
  <defs>
    <style>
      .accent-color { fill: #363B55; }
    </style>
  </defs>

  <!-- Main logo paths -->
  <path class="accent-color" d="M1027 86h253l21 2 23 5 27 10 19 10 16 11 11 9 19 19 12 17 10 16 9 17 8 21 4 16 3 24 1 40-1 238-3 26-6 24-6 16-8 17-12 18-11 14-22 22-14 11-18 11-15 8-25 9-21 5-21 3-34 1v33l-2 19-5 22-8 24-8 17-12 18-11 14-20 20-14 11-10 7-23 13-20 8-20 6-20 3-31 2h-246l-22-2-19-4-21-7-25-12-21-14-10-8-10-9-14-14-12-16-8-13-8-16-8-19-5-17-4-23-1-10v-227l1-43 3-28 4-19 7-20 10-21 14-22 12-14 11-11 17-13 18-12 16-8 14-6 20-6 21-4 48-4 1-10 1-26 4-26 5-20 8-21 10-19 13-19 9-11 12-12 14-11 14-10 27-14 20-7 20-5 23-3z" />
  <path fill="#ececf9" d="M798 403h295l30 1 19 2 16 4 15 6 11 7 10 9 8 11 7 15 4 16 2 18 1 23v34l-1 2-3 1-13 1h-15l-5-3-3-4-3-23-4-15-8-16-7-11-11-12-10-9-16-8-16-5-16-3-17-2-66-1h-173l-25 1-20 3-10 4-6 4-5 4-7 12-4 11-2 18v257l-1 2-6-1-13-11-11-14-7-14-3-11-2-21v-144l1-69 4-13 6-14 11-14 10-9 8-5 20-8 15-4z" />
  <path fill="#ececf9" d="M1324 272l8 4 13 11 8 9 6 10 3 8 1 7 1 25v186l-3 31-6 15-10 14-10 9-11 7-16 8-18 4-23 2h-303l-22-1-22-3-17-6-13-7-12-11-7-8-8-16-4-11-3-15-1-18v-22l1-25 1-4 4-2 29 1 3 2 1 3 2 21 6 18 8 17 9 13 12 12 13 9 14 7 20 6 16 2 13 1h235l26-1 16-2 12-4 10-8 6-7 6-12 2-9 1-9 1-254z" />
  <path fill="#ececf9" d="M805 473h16l4 2 1 2v54l2 26 4 22 5 16 9 21 10 17 12 17 12 13 11 11 17 13 20 13 22 11 21 7 20 4 22 2 39 1 20 1 5 3 1 4-5 25-4 8-7 5-11 1-49 1h-74l-117-1-17-1-8-4-6-12-2-7-1-14v-218l1-20 5-13 4-5 6-4z" />
  <path fill="#ececf9" d="M1168 255h96l14 2 7 7 7 10 1 3 1 77v164l-1 15-3 10-5 5-10 5-9 1-13-1-5-3-2-2-1-6v-39l-1-21-3-27-6-22-9-20-10-18-8-12-10-13-18-18-13-10-19-12-17-9-21-8-19-5-24-3-16-1-49-1-5-2-3-6v-12l4-10 8-11 5-4 3-1 11-1z" />
  <path class="accent-color" d="M1517 1076l27 1 13 3 11 6 5 4 6 10 3 9 1 6 2 67v26l-2 20-7 14-7 6-12 6-15 3-9 1h-39l-15-2-12-5-10-9-5-8-3-9-1-10v-97l1-11 5-10 9-10 9-6 9-3 6-1z" />
  <path class="accent-color" d="M788 1077h54l14 3 10 5 7 7 7 14 2 12 1 32v59l-2 19-6 12-4 5-11 7-13 4-14 2h-38l-19-3-12-6-7-8-6-12-2-8-1-12v-80l1-17 3-12 5-8 7-7 12-6z" />
  <path fill="#ececf9" d="M1029 116h238l22 1 19 3 20 6 20 9 12 6 17 11 5 6v2h-12l-27-2-58-2h-272l-23 2-14 3-13 5-15 8-14 10-10 9-8 9-7 11-6 12-5 17-3 20v39l-2 2-7 1h-11l-14-2-5-3-1-4v-16l3-30 5-20 8-20 8-15 12-17 12-13 11-11 15-11 18-10 20-8 23-5 19-2z" />
  <path fill="#ececf9" d="M1183 725h18l13 2 2 2-1 23-3 25-6 25-7 16-7 13-7 11-9 11-12 13-12 11-18 12-16 8-17 7-20 4-20 2-34 1h-204l-38-1-20-3-20-5-16-7-15-8-15-10-13-10 1-2 11 1 22 3 23 2 35 1h265l20-1 20-3 16-5 16-7 16-10 11-9 8-8 11-15 8-15 4-13 2-12 1-12v-35z" />

  <!-- Text/letter paths -->
  <path class="accent-color" d="M1631 1078h12l9 3 8 7 13 18 11 17 25 38 8 12 3 3 2 5 1-2 1-94 1-5h34l1 5v154l-2 14-2 2h-16l-8-3-8-7-8-11-14-19-12-18-11-16-13-18-4-5-2-1 1 15 1 19v57l-2 7-31-1-4-1-1-26 1-130 1-15 1-3z" />
  <path class="accent-color" d="M1068 1080h24l1 33 1 100 3 4 4 1h42l1-29 1-102 1-7h39l1 5v133l-2 13-5 10-8 7-9 5-12 3-17 2h-30l-20-2-10-4-9-6-7-9-4-10-2-16-1-38v-60l1-31 1-1z" />
  <path class="accent-color" d="M636 1079h66l5 2v30l-1 7-52 1-13 1-3 1-1 2-1 10v13l5 1 29 1 15 4 16 8 7 8 4 9 2 12v26l-3 14-6 10-5 6-10 6-15 4h-63l-13-2-1-2v-21l1-12 1-1h65l5-1v-23l-3-3-18-2-21-3-10-3-10-6-5-4-5-7-5-15-1-5v-24l2-12 5-9 8-10 11-7 8-3z" />
  <path class="accent-color" d="M1840 1079h44l22 1 1 1v35l-14 1-52 1-5 1 1 28 35 1 14 3 8 4 9 8 7 14 3 15v28l-3 10-6 10-8 7-8 4-9 3-6 1h-65l-8-2-1-2v-20l1-13 4-1h22l42-1 2-1 1-12v-12l-2-2-9-1-28-1-13-4-11-7-8-9-4-8-3-12v-29l3-10 7-13 7-7 10-6 8-2z" />
  <path class="accent-color" d="M413 1080h83l1 6v26l-1 6-60 3-1 1v18l1 4 5 1 52 2v36l-16 1-31 1-11 1 1 28 6 3h54l1 15v23h-82l-20-1-1-1-1-46v-125l1-1z" />
  <path class="accent-color" d="M193 1080h12l1 4v32l-1 1-62 1v26l1 3 3 1 55 1v34l-52 1-6 1v30l2 2h60l1 1 1 22v14l-8 1h-32l-66-1v-172l4-1z" />
  <path class="accent-color" d="M286 1080h38l9 2 11 7 7 10 5 12 1 5v18l-2 12-4 9-10 10-15 10-20 12-13 9-14 13-2 4 17 2 53 1 5 3 1 35-2 1-102-1-7-1-2-3-1-17v-50l9-7 25-15 11-7 14-10 7-6 5-4 4-7 1-9h-23l-40-1-7-2v-33l1-1z" />
  <path class="accent-color" d="M1233 1080h97v34l-2 2-4 1-29 1-2 5-1 92-1 39h-40l-1-19-1-117-28-1-9-1v-35z" />
  <path class="accent-color" d="M940 1080h26l1 1 1 94 1 37 1 3 5 2h50l1 1 1 9 1 27-6 1h-23l-71-1-1-1-1-58v-78l1-36z" />
  <path class="accent-color" d="M1369 1080h33l1 123v51h-37l-5-1v-172z" />

  <!-- Small details - inside O letters - now with transparent fill -->
  <path fill="#ececf9" d="M1025 472h14l15 2 13 9 6 10 2 9 2 35v10l-3 5-6 1h-53l-8-2-6-5-6-13-3-20v-32l3-7 5-1h11z" />
  <path fill="#ececf9" d="M1492 1116h45l5 2 1 31-1 63-2 6-2 1h-39l-6-3-1-2-1-9v-88z" />
  <path fill="#ececf9" d="M794 1116h41l5 1 1 2v84l-1 12-2 3-3 1h-28l-11-1-5-4-1-7v-88l1-2z" />
</svg>