<?xml version="1.0" encoding="UTF-8"?>
<svg xmlns="http://www.w3.org/2000/svg" viewBox="580 120 900 780" width="149" height="170">
  <!-- Define colors as variables for easier maintenance -->
  <defs>
    <style>
      .accent-color { fill: #363B55; }
    </style>
  </defs>

  <!-- Main logo paths -->
  <path class="accent-color" d="M1027 86h253l21 2 23 5 27 10 19 10 16 11 11 9 19 19 12 17 10 16 9 17 8 21 4 16 3 24 1 40-1 238-3 26-6 24-6 16-8 17-12 18-11 14-22 22-14 11-18 11-15 8-25 9-21 5-21 3-34 1v33l-2 19-5 22-8 24-8 17-12 18-11 14-20 20-14 11-10 7-23 13-20 8-20 6-20 3-31 2h-246l-22-2-19-4-21-7-25-12-21-14-10-8-10-9-14-14-12-16-8-13-8-16-8-19-5-17-4-23-1-10v-227l1-43 3-28 4-19 7-20 10-21 14-22 12-14 11-11 17-13 18-12 16-8 14-6 20-6 21-4 48-4 1-10 1-26 4-26 5-20 8-21 10-19 13-19 9-11 12-12 14-11 14-10 27-14 20-7 20-5 23-3z" />
  <path fill="#ececf9" d="M798 403h295l30 1 19 2 16 4 15 6 11 7 10 9 8 11 7 15 4 16 2 18 1 23v34l-1 2-3 1-13 1h-15l-5-3-3-4-3-23-4-15-8-16-7-11-11-12-10-9-16-8-16-5-16-3-17-2-66-1h-173l-25 1-20 3-10 4-6 4-5 4-7 12-4 11-2 18v257l-1 2-6-1-13-11-11-14-7-14-3-11-2-21v-144l1-69 4-13 6-14 11-14 10-9 8-5 20-8 15-4z" />
  <path fill="#ececf9" d="M1324 272l8 4 13 11 8 9 6 10 3 8 1 7 1 25v186l-3 31-6 15-10 14-10 9-11 7-16 8-18 4-23 2h-303l-22-1-22-3-17-6-13-7-12-11-7-8-8-16-4-11-3-15-1-18v-22l1-25 1-4 4-2 29 1 3 2 1 3 2 21 6 18 8 17 9 13 12 12 13 9 14 7 20 6 16 2 13 1h235l26-1 16-2 12-4 10-8 6-7 6-12 2-9 1-9 1-254z" />
  <path fill="#ececf9" d="M805 473h16l4 2 1 2v54l2 26 4 22 5 16 9 21 10 17 12 17 12 13 11 11 17 13 20 13 22 11 21 7 20 4 22 2 39 1 20 1 5 3 1 4-5 25-4 8-7 5-11 1-49 1h-74l-117-1-17-1-8-4-6-12-2-7-1-14v-218l1-20 5-13 4-5 6-4z" />
  <path fill="#ececf9" d="M1168 255h96l14 2 7 7 7 10 1 3 1 77v164l-1 15-3 10-5 5-10 5-9 1-13-1-5-3-2-2-1-6v-39l-1-21-3-27-6-22-9-20-10-18-8-12-10-13-18-18-13-10-19-12-17-9-21-8-19-5-24-3-16-1-49-1-5-2-3-6v-12l4-10 8-11 5-4 3-1 11-1z" />
  <path fill="#ececf9" d="M1029 116h238l22 1 19 3 20 6 20 9 12 6 17 11 5 6v2h-12l-27-2-58-2h-272l-23 2-14 3-13 5-15 8-14 10-10 9-8 9-7 11-6 12-5 17-3 20v39l-2 2-7 1h-11l-14-2-5-3-1-4v-16l3-30 5-20 8-20 8-15 12-17 12-13 11-11 15-11 18-10 20-8 23-5 19-2z" />
  <path fill="#ececf9" d="M1183 725h18l13 2 2 2-1 23-3 25-6 25-7 16-7 13-7 11-9 11-12 13-12 11-18 12-16 8-17 7-20 4-20 2-34 1h-204l-38-1-20-3-20-5-16-7-15-8-15-10-13-10 1-2 11 1 22 3 23 2 35 1h265l20-1 20-3 16-5 16-7 16-10 11-9 8-8 11-15 8-15 4-13 2-12 1-12v-35z" />

  <!-- Small details - inside O letters - now with transparent fill -->
  <path fill="#ececf9" d="M1025 472h14l15 2 13 9 6 10 2 9 2 35v10l-3 5-6 1h-53l-8-2-6-5-6-13-3-20v-32l3-7 5-1h11z" />
</svg> 